<?xml version="1.0" encoding="utf-8"?>
<!-- Generator: Adobe Illustrator 23.0.3, SVG Export Plug-In . SVG Version: 6.00 Build 0)  -->
<svg version="1.1" id="Calque_1" xmlns="http://www.w3.org/2000/svg" xmlns:xlink="http://www.w3.org/1999/xlink" x="0px" y="0px"
	 viewBox="0 0 803.3 77.2" enable-background="new 0 0 803.3 77.2" xml:space="preserve">
<title>Fichier 8</title>
<g>
	<g id="Calque_1-2">
		<path fill="currentColor" d="M57.3,19.3c0,2.1-0.2,4.2-0.7,6.3c-0.9,4.6-3,8.8-6.1,12.4c-1.7,2-3.7,3.6-5.8,5c-2.5,1.5-5.2,2.7-8,3.4
			c-3.5,0.9-7.1,1.3-10.8,1.3h-7.3l-4.4,22.2c-0.1,0.4-0.3,0.7-0.5,1c-0.4,0.3-0.8,0.6-1.3,0.7c-0.8,0.2-1.5,0.3-2.3,0.4
			c-0.9,0.1-2.1,0.1-3.4,0.1s-2.4,0-3.3-0.1c-0.7-0.1-1.4-0.2-2.1-0.4c-0.4-0.1-0.7-0.3-1-0.7c-0.2-0.3-0.2-0.7-0.1-1L12.6,7.3
			c0.2-1.5,0.9-2.8,2.1-3.8c1.1-0.9,2.6-1.3,4-1.3h15.2c1.9,0,3.5,0.1,5,0.2c1.4,0.1,2.9,0.3,4.3,0.6c2,0.4,4,1.1,5.9,2
			c1.7,0.8,3.2,2,4.4,3.4c1.2,1.4,2.2,3,2.8,4.7C57,15.1,57.3,17.2,57.3,19.3z M42.4,20.9c0-1.6-0.4-3.1-1.2-4.4
			c-0.9-1.3-2.3-2.3-3.8-2.6c-0.8-0.3-1.7-0.4-2.5-0.5c-0.9-0.1-2-0.1-3.1-0.1h-6.2l-4.6,23.6h6.4c1.8,0,3.5-0.2,5.2-0.7
			c1.4-0.4,2.6-1.1,3.8-1.9c1.1-0.8,2-1.7,2.8-2.8c1.5-2.1,2.5-4.4,2.9-7C42.3,23.2,42.4,22,42.4,20.9z"/>
		<path fill="currentColor" d="M98,62.2c0,0.3,0,0.7-0.1,1.2s-0.2,1.2-0.3,1.9s-0.3,1.4-0.5,2.2c-0.2,0.7-0.4,1.4-0.7,2.1
			c-0.2,0.6-0.5,1.1-0.9,1.5c-0.3,0.4-0.8,0.6-1.2,0.6H62.4c-0.5,0-1.1-0.1-1.6-0.2c-0.5-0.2-0.9-0.4-1.2-0.8
			c-0.3-0.4-0.5-0.9-0.6-1.4c-0.1-0.7-0.1-1.3,0-2L71.8,4.1c0-0.4,0.2-0.7,0.5-1c0.4-0.3,0.8-0.6,1.3-0.7c0.7-0.2,1.5-0.3,2.3-0.4
			c0.9-0.1,2.1-0.1,3.5-0.1s2.5,0,3.4,0.1c0.7,0.1,1.4,0.2,2.1,0.4c0.4,0.1,0.8,0.4,1,0.7c0.2,0.3,0.2,0.7,0.1,1l-11.2,56h21.9
			c0.4,0,0.9,0.2,1.1,0.6C97.9,61.2,98,61.7,98,62.2z"/>
		<path fill="currentColor" d="M162.6,66.5c0.2,1,0.2,2,0.3,3.1c0,0.7-0.3,1.3-0.8,1.7c-0.7,0.4-1.5,0.7-2.4,0.7
			c-1.1,0.1-2.6,0.1-4.6,0.1c-1.4,0-2.5,0-3.3-0.1c-0.7,0-1.3-0.1-2-0.3c-0.4-0.1-0.8-0.3-1-0.6c-0.2-0.4-0.3-0.8-0.3-1.2l-1.9-14
			h-26.1l-7.2,13.7c-0.2,0.5-0.5,0.9-0.9,1.3c-0.4,0.4-0.9,0.6-1.4,0.8c-0.8,0.2-1.6,0.3-2.4,0.4c-1,0.1-2.3,0.1-3.8,0.1
			c-1.3,0-2.5,0-3.8-0.1c-0.7,0-1.3-0.3-1.8-0.8c-0.3-0.5-0.4-1.2-0.1-1.8c0.4-1,0.8-2,1.4-3l33.7-61.7c0.3-0.5,0.7-1,1.1-1.5
			c0.4-0.4,1-0.7,1.5-0.9c0.9-0.2,1.8-0.3,2.7-0.4c1.1,0,2.6-0.1,4.4-0.1c2.1,0,3.8,0,5,0.1c1,0,1.9,0.1,2.9,0.4
			c0.5,0.1,1,0.4,1.4,0.9c0.2,0.5,0.4,1.1,0.4,1.6L162.6,66.5z M141.5,15.5L141.5,15.5L126,45h19.6L141.5,15.5z"/>
		<path fill="currentColor" d="M229.4,66.8c-0.1,0.8-0.4,1.5-0.8,2.2c-0.4,0.6-0.9,1.2-1.4,1.6c-0.5,0.4-1.2,0.7-1.8,0.9
			c-0.7,0.2-1.4,0.3-2.1,0.3h-6c-1.1,0-2.1-0.1-3.2-0.4c-0.8-0.2-1.5-0.7-2.1-1.3c-0.7-0.8-1.2-1.7-1.6-2.6
			c-0.6-1.4-1.1-2.8-1.5-4.2l-10.3-31c-0.8-2.4-1.5-4.8-2.2-7.3c-0.7-2.4-1.3-4.9-1.9-7.3h-0.1c-0.4,2.8-0.8,5.6-1.2,8.4
			c-0.5,2.7-1,5.5-1.6,8.2l-7.1,35.5c-0.1,0.4-0.2,0.7-0.5,1c-0.3,0.3-0.7,0.6-1.2,0.7c-0.7,0.2-1.4,0.4-2.1,0.4
			c-1,0.1-2.1,0.2-3.1,0.2c-1,0-2.1,0-3.1-0.2c-0.6-0.1-1.3-0.2-1.9-0.4c-0.7-0.2-1.1-0.9-0.9-1.5c0,0,0-0.1,0-0.1l12.5-62.6
			c0.2-1.5,1-2.9,2.2-3.8c1.1-0.8,2.5-1.3,3.9-1.3h7.4c1,0,2,0.1,3,0.4c0.8,0.3,1.5,0.7,2.1,1.3c0.6,0.7,1.2,1.4,1.6,2.3
			c0.5,1.1,0.9,2.3,1.3,3.4L216.1,41c0.7,2,1.3,4,1.9,6s1.1,3.9,1.7,5.9h0.1c0.4-2.6,0.8-5.2,1.3-8c0.5-2.8,1-5.4,1.5-8l6.6-32.8
			c0.1-0.4,0.2-0.7,0.5-0.9c0.3-0.3,0.7-0.5,1.2-0.7c0.7-0.2,1.3-0.3,2-0.4c0.8-0.1,1.9-0.1,3.1-0.1s2.3,0,3.1,0.1
			c0.6,0.1,1.3,0.2,1.9,0.4c0.4,0.1,0.7,0.3,0.9,0.7c0.1,0.3,0.2,0.6,0.1,0.9L229.4,66.8z"/>
		<path fill="currentColor" d="M301.5,66.8c-0.1,0.8-0.4,1.5-0.8,2.2c-0.4,0.6-0.9,1.2-1.5,1.6c-0.5,0.4-1.2,0.7-1.8,0.9
			c-0.7,0.2-1.4,0.3-2.1,0.3h-6c-1.1,0-2.1-0.1-3.2-0.4c-0.8-0.2-1.5-0.7-2.1-1.3c-0.7-0.8-1.2-1.7-1.6-2.6
			c-0.6-1.4-1.1-2.8-1.5-4.2l-10.3-31c-0.8-2.4-1.5-4.8-2.2-7.3s-1.3-4.9-1.9-7.3h-0.1c-0.4,2.8-0.8,5.6-1.2,8.4s-1,5.5-1.6,8.2
			l-7.1,35.5c-0.1,0.4-0.2,0.7-0.5,1c-0.3,0.3-0.8,0.6-1.2,0.7c-0.7,0.2-1.4,0.4-2.1,0.4c-1,0.1-2.1,0.2-3.1,0.2c-1,0-2.1,0-3.1-0.2
			c-0.6-0.1-1.3-0.2-1.9-0.4c-0.4-0.1-0.7-0.4-0.8-0.7c-0.1-0.3-0.1-0.7,0-1l12.5-62.6c0.2-1.5,1-2.9,2.2-3.8
			c1.1-0.8,2.5-1.3,3.9-1.3h7.4c1,0,2,0.1,3,0.4c0.8,0.3,1.5,0.7,2.1,1.3c0.6,0.7,1.2,1.4,1.6,2.3c0.5,1.1,0.9,2.3,1.3,3.4L288.3,41
			c0.7,2,1.3,4,1.9,6s1.1,3.9,1.7,5.9h0.1c0.4-2.6,0.8-5.2,1.3-8s1-5.4,1.5-8l6.6-32.8c0.1-0.4,0.2-0.7,0.5-0.9
			c0.3-0.3,0.7-0.6,1.1-0.7c0.7-0.2,1.3-0.3,2-0.4c0.8-0.1,1.9-0.1,3.1-0.1s2.3,0,3.1,0.1c0.6,0.1,1.3,0.2,1.9,0.4
			c0.4,0.1,0.7,0.3,0.9,0.7c0.1,0.3,0.2,0.6,0.1,0.9L301.5,66.8z"/>
		<path fill="currentColor" d="M385.4,25.5c0,3.4-0.3,6.8-0.9,10.1c-0.6,3.6-1.5,7.2-2.8,10.7c-1.3,3.6-3,7-5,10.1
			c-2.1,3.2-4.6,6.1-7.6,8.5c-3.1,2.5-6.7,4.5-10.5,5.9c-4.4,1.5-9,2.3-13.7,2.2c-3.9,0.1-7.7-0.4-11.5-1.4c-3.1-0.8-6-2.4-8.4-4.5
			c-2.3-2.1-4.1-4.7-5.2-7.6c-1.2-3.4-1.8-7.1-1.7-10.7c0-3.5,0.3-7.1,0.9-10.6c0.6-3.7,1.6-7.3,2.9-10.8c1.3-3.5,3-6.9,5.1-10.1
			c2.1-3.2,4.7-6,7.6-8.4c3.1-2.5,6.6-4.5,10.4-5.8c8.1-2.6,16.8-2.8,25-0.6c3.1,0.9,6,2.4,8.4,4.5c2.3,2.1,4.1,4.7,5.1,7.6
			C384.9,18.1,385.5,21.8,385.4,25.5z M370.5,26.8c0-2-0.2-4-0.7-5.9c-0.4-1.7-1.2-3.2-2.3-4.5c-1.1-1.3-2.6-2.2-4.2-2.8
			c-4.8-1.6-10-1.3-14.6,0.8c-2.3,1.2-4.4,2.8-6.2,4.7c-1.8,2-3.3,4.2-4.4,6.6c-1.2,2.4-2.1,5-2.8,7.6c-0.7,2.5-1.2,5-1.5,7.5
			c-0.3,2.1-0.4,4.3-0.5,6.4c0,2,0.2,4,0.7,6c0.8,3.4,3.3,6.1,6.6,7.2c2.1,0.7,4.2,1,6.4,1c2.8,0.1,5.6-0.6,8.2-1.8
			c2.3-1.1,4.4-2.7,6.1-4.6c1.8-2,3.2-4.2,4.4-6.6c1.2-2.4,2.1-4.9,2.9-7.5c0.7-2.4,1.2-4.9,1.5-7.5C370.3,31.2,370.5,29,370.5,26.8
			z"/>
		<path fill="currentColor" d="M447.7,17.4c0,2.3-0.3,4.6-0.9,6.8c-0.6,2.3-1.7,4.4-3,6.4c-1.4,2.1-3.2,3.9-5.3,5.4
			c-2.4,1.7-5.1,3-7.9,3.9c1.9,0.8,3.4,2.2,4.3,4c1.4,2.6,2.3,5.4,2.9,8.3l2.9,14.1c0.1,0.8,0.3,1.5,0.4,2.1
			c0.1,0.5,0.1,1.1,0.1,1.6c0,0.3-0.1,0.7-0.4,0.9c-0.4,0.3-0.8,0.5-1.3,0.6c-0.8,0.2-1.6,0.4-2.5,0.5c-1,0.1-2.4,0.1-4,0.1
			s-2.7,0-3.6-0.1c-0.7-0.1-1.4-0.2-2.1-0.4c-0.4-0.1-0.8-0.4-1-0.8c-0.2-0.4-0.3-0.7-0.4-1.1l-2.7-15.5c-0.3-1.6-0.7-3.2-1.2-4.7
			c-0.4-1.2-1-2.4-1.8-3.5c-0.7-0.9-1.7-1.6-2.8-2c-1.2-0.5-2.6-0.7-3.9-0.7h-4.4l-5.3,26.5c-0.1,0.4-0.3,0.7-0.5,1
			c-0.4,0.3-0.8,0.6-1.3,0.7c-0.7,0.2-1.5,0.3-2.3,0.4c-0.9,0.1-2.1,0.1-3.4,0.1s-2.5,0-3.4-0.1c-0.7-0.1-1.4-0.2-2.1-0.4
			c-0.4-0.1-0.7-0.3-1-0.7c-0.2-0.3-0.2-0.7-0.1-1l12.7-63.2c0.2-1.3,0.8-2.6,1.9-3.4c1-0.7,2.2-1,3.4-1h18.6c3,0,5.9,0.3,8.8,0.9
			c2.4,0.5,4.7,1.5,6.7,2.8c1.8,1.2,3.3,2.8,4.3,4.7C447.2,12.8,447.7,15.1,447.7,17.4z M432.5,20c0-1-0.2-1.9-0.5-2.8
			c-0.3-0.9-0.9-1.6-1.6-2.2c-0.9-0.7-1.9-1.2-2.9-1.4c-1.4-0.4-2.9-0.5-4.3-0.5h-8l-3.9,19.7h6.7c2.3,0.1,4.6-0.3,6.8-1.1
			c1.7-0.7,3.2-1.7,4.5-3c1.1-1.2,2-2.5,2.5-4.1C432.3,23.1,432.5,21.5,432.5,20z"/>
		<path fill="currentColor" d="M526.6,18.8c0.1-2.1-0.8-4.2-2.3-5.6c-1.5-1.4-4.1-2.1-7.7-2.1c-2.6,0-5.2,0.3-7.8,0.8
			c-3.2,0.7-6.3,1.6-9.4,2.6l2.3-11.1c2.5-1.1,5.2-1.9,7.8-2.5c3.1-0.7,6.3-1,9.5-1c3.1-0.1,6.2,0.4,9.2,1.3c2.4,0.7,4.6,2,6.4,3.6
			c1.7,1.5,2.9,3.4,3.8,5.4c0.8,2.2,1.3,4.5,1.2,6.8c0.1,4.3-1.1,8.6-3.3,12.3c-2.4,3.7-5.9,6.5-10,8v0.2c2.7,0.8,5,2.4,6.6,4.7
			c1.6,2.4,2.4,5.2,2.3,8c0.1,7.5-3.1,14.7-8.8,19.5c-2.9,2.4-6.1,4.2-9.7,5.4c-3.9,1.3-7.9,1.9-12,1.9c-3.5,0-6.9-0.4-10.3-1.2
			c-2.6-0.6-5.2-1.6-7.5-3l2.2-10.7c2.2,1.2,4.6,2.2,7.1,2.8c2.5,0.7,5.1,1,7.7,1c2.7,0.1,5.4-0.4,7.9-1.2c2.1-0.7,4-1.8,5.7-3.2
			c1.5-1.3,2.7-2.9,3.5-4.7c0.8-1.8,1.2-3.7,1.2-5.6c0.1-2.3-0.8-4.5-2.5-6c-1.7-1.5-4.2-2.3-7.7-2.3h-10.5l2.3-11h6.7
			c2.6,0,5.2-0.4,7.7-1.2c1.9-0.6,3.6-1.7,5-3c1.2-1.2,2.2-2.7,2.8-4.3C526.3,22.1,526.6,20.5,526.6,18.8z"/>
		<path fill="currentColor" d="M587,52.9c5.4-5.7,11.4-3.5,17.1-2.7c3.3,0.5,5.8-0.1,8.2-2.3c3-2.7,6.1-5.3,9.3-7.8
			c2.8-2.2,2.7-4.3,0-6.3c-6.3-4.7-12.6-9.3-18.8-14c-0.9-0.8-1.8-1.7-2.6-2.7c0.9-0.8,1.9-1.6,2.9-2.3c4.1-2.3,8.3-2.4,12.8-1.1
			c7.1,2.2,14.3,4,21.4,6.2c2.5,0.9,5.3,0.3,7.2-1.5c6.2-5,12.2-10.2,18.8-14.6c3.2-2.1,7.3-3,11.2-3.8c2.6-0.6,4.4,2.3,3.1,5.2
			c-1.4,3.4-3.4,6.5-5.8,9.1c-11.3,11-23.2,21.4-34.5,32.4c-8.1,7.9-18.6,11.4-28.1,16.7c-1.2,0.5-2.5,0.5-3.7,0
			C599.2,60.1,593.2,56.5,587,52.9z"/>
		<path fill="currentColor" d="M642.2,53.1l10-9.1c5.9,3.9,11.7,8,17.6,11.7c13.8,8.6,26.4,1.1,31.7-7.3c6.8-11.1,3.4-25.6-7.8-32.5
			c-2.2-1.4-4.7-2.4-7.2-2.9c-0.7-0.2-1.5-0.3-2.1-0.5L687.7,0c18.2,3.5,30.9,18.9,30.2,36.9c-0.7,18.4-14.4,33.1-33,35.4
			c-6,0.8-12.1-0.5-17.4-3.5C659.1,64,651,58.6,642.2,53.1z"/>
		<path fill="currentColor" d="M589.4,13.3c-11.9-1.9-23.2,5.7-26,17.4c-3.2,12.4,3.9,24.1,16.2,28.7c6.7,2.5,12.8,6.6,19.5,10.2
			c-12.1,7-29.8,2.9-40.1-8.8c-11.7-13.2-12.3-32.9-1.4-46.8C566.7,2.2,585.7-5,601,4L589.4,13.3z"/>
		<path fill="currentColor" d="M803.3,19.5c-6.2-3.9-12-7.7-17.8-11.3c-5-4.2-11-7-17.4-8.2l-0.1,0.3c-2.5-0.3-5-0.4-7.4-0.1
			c-18.6,2.3-32.3,17-33,35.4c-0.2,3.9,0.3,7.8,1.4,11.5l-6.5,5.9c6.2,3.9,12,7.7,17.8,11.3c5,4.2,11,7,17.4,8.2l0.1-0.3
			c2.5,0.3,5,0.4,7.4,0.1c18.6-2.3,32.3-17,33-35.4c0.2-3.9-0.3-7.8-1.4-11.6L803.3,19.5z M781.8,48.3c-5.2,8.5-17.8,15.9-31.6,7.4
			c-9.8-7.3-12.5-20.9-6.1-31.4c5.2-8.4,17.8-15.9,31.6-7.4C785.6,24.2,788.2,37.8,781.8,48.3z"/>
	</g>
</g>
</svg>
